<svg xmlns="http://www.w3.org/2000/svg" width="50.145" height="43.877" viewBox="0 0 50.145 43.877"><defs><style>.a{fill:#fff;}</style></defs><path class="a" d="M509.939,58.237a4.7,4.7,0,1,1-4.7-4.7A4.7,4.7,0,0,1,509.939,58.237Zm28.207-10.969V78.609a6.274,6.274,0,0,1-6.268,6.268H494.268A6.274,6.274,0,0,1,488,78.609V47.268A6.274,6.274,0,0,1,494.268,41h37.609A6.274,6.274,0,0,1,538.145,47.268ZM531.88,66.931l0-19.663H494.268V75.475l5.619-5.619a3.136,3.136,0,0,1,4.431,0l8.753,8.753h8.863l-10.7-10.7,8.923-8.923a3.135,3.135,0,0,1,4.529.1Z" transform="translate(-488 -41)"/></svg>
