<svg xmlns="http://www.w3.org/2000/svg" width="152.77" height="49.414" viewBox="0 0 152.77 49.414"><defs><style>.a{fill:#212633;}</style></defs><path class="a" d="M850.544,2933.377a11.788,11.788,0,0,1-2.643,5.066,9.665,9.665,0,0,1-3.744,2.477,12.813,12.813,0,0,1-1.652,5.286,9.984,9.984,0,0,1-2.065,2.5,4.393,4.393,0,0,1-3.221.909,6.381,6.381,0,0,1-3.744-1.157,7.262,7.262,0,0,1-2.285-2.807,10.887,10.887,0,0,1-.963-3.772,17.056,17.056,0,0,1,.165-4.1,5.944,5.944,0,0,1-.963-2.725,6.151,6.151,0,0,1,4.6-6.579,7.258,7.258,0,0,1,4.653.082,7.5,7.5,0,0,1,3.248,2.561,11.168,11.168,0,0,1,1.844,4.13,17.554,17.554,0,0,1,.44,4.789,7.9,7.9,0,0,0,3.166-2.258,13.221,13.221,0,0,0,2.395-4.569.868.868,0,0,1,.385.082A.841.841,0,0,0,850.544,2933.377Zm-12.278-.77a16.89,16.89,0,0,0-1.184,3.5,27.671,27.671,0,0,0-.633,4.1,21.8,21.8,0,0,0,3.881.469,10.7,10.7,0,0,0,3.056-.358,16.3,16.3,0,0,0-.3-4.515,11,11,0,0,0-1.6-3.937,6.784,6.784,0,0,0-2.946-2.478,6.541,6.541,0,0,0-4.35-.137,5.424,5.424,0,0,0-4.047,5.12,4.811,4.811,0,0,0,.468,2.2,13.79,13.79,0,0,1,1.542-3.8Zm.275,16.022a5.8,5.8,0,0,0,3.249-2.726,12.2,12.2,0,0,0,1.542-4.708,11.147,11.147,0,0,1-3.5.33,17.472,17.472,0,0,1-3.441-.55,20.965,20.965,0,0,0-.027,2.835,12.409,12.409,0,0,0,.358,2.4,5.649,5.649,0,0,0,.716,1.706A1.447,1.447,0,0,0,838.541,2948.629Z" transform="translate(-805.786 -2902.394)"/><path class="a" d="M900.633,2947.821a3.663,3.663,0,0,0,1.679-1.239,15.419,15.419,0,0,0,1.542-2.285,29.9,29.9,0,0,0,1.4-2.863q.66-1.541,1.211-3.056t.964-2.808q.413-1.292.688-2.12a.372.372,0,0,1,.5-.22q.385.22.22.55-.22.716-.661,2.2t-1.1,3.274q-.661,1.792-1.514,3.635a22.31,22.31,0,0,1-1.927,3.387,11.013,11.013,0,0,1-2.34,2.5,4.1,4.1,0,0,1-2.7.908,5.389,5.389,0,0,1-5.12-2.532,16.224,16.224,0,0,1-2.092-6.993q-.331,1.873-.771,3.607a16.53,16.53,0,0,1-1.074,3.056,7.3,7.3,0,0,1-1.459,2.12,2.491,2.491,0,0,1-1.927.743,5.465,5.465,0,0,1-4.295-1.486,9.526,9.526,0,0,1-2.34-4.406,27.424,27.424,0,0,1-.8-6.578,75.262,75.262,0,0,1,.33-7.956q.056-.5,1.1-.716a10.075,10.075,0,0,1,2.285-.193,11.043,11.043,0,0,1,2.285.275q1.046.248,1.157.634-.111.771-.276,2.23t-.3,3.276q-.138,1.818-.193,3.8t.055,3.771a21.44,21.44,0,0,0,.413,3.194,3.741,3.741,0,0,0,.964,2.009.93.93,0,0,0,1.6-.193,10.4,10.4,0,0,0,1.294-3.056,43.975,43.975,0,0,0,1.018-4.653q.44-2.613.771-4.927,0-1.266.082-2.643t.193-2.807q.055-.5,1.1-.716a10.225,10.225,0,0,1,2.312-.193,11.165,11.165,0,0,1,2.313.275q1.045.248,1.156.634-.111.881-.331,2.7t-.358,4.02q-.138,2.2-.165,4.487a22.414,22.414,0,0,0,.275,4.047,7.17,7.17,0,0,0,.964,2.754A1.435,1.435,0,0,0,900.633,2947.821Z" transform="translate(-835.174 -2902.522)"/><path class="a" d="M1014.151,2941.709a3.823,3.823,0,0,0,1.706-1.239,15.5,15.5,0,0,0,1.6-2.286,26.022,26.022,0,0,0,1.432-2.864q.661-1.539,1.239-3.054t.991-2.808q.414-1.294.688-2.121a.419.419,0,0,1,.771.33q-.276.717-.743,2.2t-1.128,3.275q-.661,1.792-1.542,3.635a22.465,22.465,0,0,1-1.982,3.386,11.526,11.526,0,0,1-2.367,2.5,4.11,4.11,0,0,1-2.7.909,5.406,5.406,0,0,1-4.212-1.431,9.447,9.447,0,0,1-2.34-4.269,25.7,25.7,0,0,1-.854-6.385,74.974,74.974,0,0,1,.248-7.736q-.441-.056-.853-.084a4.852,4.852,0,0,1-.854-.137q-.276,1.541-.605,2.808t-.441,1.541a.354.354,0,0,1-.5.276q-.385-.165-.275-.5a13.36,13.36,0,0,0,.468-1.514q.358-1.292.633-2.835a2.6,2.6,0,0,1-1.321-1.294,4.5,4.5,0,0,1-.413-1.708,3.625,3.625,0,0,1,.247-1.514,1.163,1.163,0,0,1,.716-.77,1.322,1.322,0,0,1,1.1.22,1.833,1.833,0,0,1,.551.936,5.011,5.011,0,0,1,.138,1.459q-.029.854-.138,1.79a5.236,5.236,0,0,0,1.459.11q.633-.055,1.459-.165a7.389,7.389,0,0,1,1.652-.166,13.65,13.65,0,0,1,1.762.109,7,7,0,0,1,1.431.331q.605.222.661.5-.112.881-.331,2.7t-.358,4.02q-.138,2.2-.138,4.487a24.09,24.09,0,0,0,.3,4.046,7.159,7.159,0,0,0,.964,2.753A1.434,1.434,0,0,0,1014.151,2941.709Zm-11.453-19.545a9.3,9.3,0,0,0,.11-2.4q-.111-.962-.881-.908a.849.849,0,0,0-.193.55,3.1,3.1,0,0,0,.082.881,5.319,5.319,0,0,0,.33.99A3.573,3.573,0,0,0,1002.7,2922.164Z" transform="translate(-907.928 -2896.355)"/><path class="a" d="M1060.649,2930.717a7.01,7.01,0,0,0,3.827-2.121,23.5,23.5,0,0,0,3.221-4.047,30.873,30.873,0,0,0,2.4-4.542,35.671,35.671,0,0,0,1.349-3.606c.073-.221.238-.275.5-.166q.331.112.22.5a24.07,24.07,0,0,1-.8,2.313,33.681,33.681,0,0,1-1.459,3.193q-.882,1.708-2.01,3.5a22.26,22.26,0,0,1-2.478,3.248,14.169,14.169,0,0,1-2.836,2.4,5.619,5.619,0,0,1-3.028.936,7.4,7.4,0,0,1-4.157-.991,8.119,8.119,0,0,1-2.7-2.726,10.7,10.7,0,0,1-1.376-3.8,14.943,14.943,0,0,1-.11-4.241,16.214,16.214,0,0,1,1.019-4.074,10.191,10.191,0,0,1,2.01-3.276,6.659,6.659,0,0,1,2.918-1.845,5.825,5.825,0,0,1,3.716.193,3.578,3.578,0,0,1,2.671,3.854,8,8,0,0,1-.715,2.7,24.793,24.793,0,0,1-1.487,2.835,30.434,30.434,0,0,1-1.844,2.7q-.991,1.294-1.817,2.284a9.6,9.6,0,0,0,.991,3.194A2.928,2.928,0,0,0,1060.649,2930.717Zm1.1-24.722a2.106,2.106,0,0,1-1.624.275,7.082,7.082,0,0,1-2.093-.716,11.219,11.219,0,0,1-2.092-1.4,6.935,6.935,0,0,1-1.542-1.735,2.821,2.821,0,0,1-.441-1.735,1.826,1.826,0,0,1,1.129-1.4,1.586,1.586,0,0,1,1.349-.056,2.231,2.231,0,0,1,.8.882,7.313,7.313,0,0,1,.578,1.458,9.5,9.5,0,0,0,.688,1.707,6.4,6.4,0,0,0,1.184,1.6A4.714,4.714,0,0,0,1061.75,2906Zm.5,7.6a2.307,2.307,0,0,0-2.2.8,7.894,7.894,0,0,0-1.542,2.7,16.964,16.964,0,0,0-.853,3.771,19.8,19.8,0,0,0-.083,4.019q.991-1.156,2.092-2.7a24.372,24.372,0,0,0,1.9-3.111,11.43,11.43,0,0,0,1.074-3A3.311,3.311,0,0,0,1062.245,2913.594Z" transform="translate(-937.908 -2885.087)"/><path class="a" d="M1119.853,2926a38.593,38.593,0,0,1-2.285,5.753,34.56,34.56,0,0,1-3.442,5.645,6.334,6.334,0,0,1-2.7,3.441,8.019,8.019,0,0,1-3.992,1.184,7.8,7.8,0,0,1-3.991-.964,6.354,6.354,0,0,1-2.781-2.946,7.56,7.56,0,0,1-.358-4.735,15.891,15.891,0,0,1,3.359-6.388,2.238,2.238,0,0,1,.33.277.265.265,0,0,1,0,.385,15.351,15.351,0,0,0-2.863,5.725,7.894,7.894,0,0,0,.083,4.13,4.089,4.089,0,0,0,1.9,2.367,3.614,3.614,0,0,0,2.615.413,3.51,3.51,0,0,0,2.175-1.761,6.608,6.608,0,0,0,.606-4.1,10.878,10.878,0,0,0-.771-3.057,27.229,27.229,0,0,0-1.376-2.834q-1.1-1.928-1.9-3.552t-1.679-3.056q-.112.441-.331,1.129t-.44,1.376c-.147.46-.331,1.017-.551,1.679-.074.257-.256.349-.55.275q-.33-.054-.22-.5.385-1.21.633-2.009t.523-1.68q.275-.88.441-1.487a3.406,3.406,0,0,1-.221-2.367,3.813,3.813,0,0,1,1.157-1.762,4.918,4.918,0,0,1,1.871-1.018,3.672,3.672,0,0,1,1.927-.083,2.195,2.195,0,0,1,.771.3.921.921,0,0,1,.358.605,4.9,4.9,0,0,1,.055,1.1q-.029.688-.193,1.844a27.731,27.731,0,0,0,1.872,3.442q1.1,1.734,2.12,3.5a28.41,28.41,0,0,1,1.762,3.607,11.764,11.764,0,0,1,.854,3.716v.963a7.46,7.46,0,0,1-.055.908,38.188,38.188,0,0,0,2.725-4.983,42.5,42.5,0,0,0,1.79-4.6c0-.293.146-.4.44-.33Q1119.962,2925.561,1119.853,2926Z" transform="translate(-967.105 -2894.797)"/><path class="a" d="M799.861,2864.688c-7.513-.608-15.812-.337-22.885,2.556-3.314,1.355-6.841,4.162-5.845,8.22a35.123,35.123,0,0,1,3.58-2.049,56.5,56.5,0,0,1,5.448-2.354q1.965-.737,3.974-1.35c.28-.086.565-.157.842-.25a8.457,8.457,0,0,1,1.355-.431c.5-.081,1-.216,1.5-.319.2-.04.391-.076.586-.114.044-.14.087-.281.132-.418,0,.012,0,.024,0,.035-.041.126-.078.254-.117.38q-.187.59-.362,1.181c-.117.4-.232.8-.339,1.2-.125.465-.246.928-.357,1.385-.243,1.151-.539,2.3-.708,3.464l-.289,1.747-.228,1.755a64.195,64.195,0,0,0-.4,7.067,68.49,68.49,0,0,0,.413,7.067,63.289,63.289,0,0,0,1.225,6.961,58.052,58.052,0,0,0,2.012,6.759c.548,1.45,1.132,2.889,1.808,4.279,0,0,.005.016.008.017.345.711.943,1.655,1.344,2.337C792.557,2913.809,776.857,2876.391,799.861,2864.688Z" transform="translate(-770.96 -2864.422)"/><path class="a" d="M847.876,2872.808l2.758-.073A12.685,12.685,0,0,0,847.876,2872.808Z" transform="translate(-816.797 -2869.35)"/><path class="a" d="M836.815,2873.127c-.223.038-.446.08-.666.129a12.732,12.732,0,0,0-6.2,3.97A12.908,12.908,0,0,1,836.815,2873.127Z" transform="translate(-806.115 -2869.61)"/><path class="a" d="M821.2,2871.2c3.064-2.188,6.924-2.8,10.612-2.767a79.859,79.859,0,0,1,12.967,1.168,104.977,104.977,0,0,0-18.8-3.594,4.75,4.75,0,0,0-1.479.013,4.395,4.395,0,0,0-1.289.575c-10.093,6.026-12.094,18.06-10.959,28.864a71.522,71.522,0,0,0,4.769,19.251l.016.039c-.25-.658-.482-1.321-.706-1.986l.034.009a72.3,72.3,0,0,1-2.449-25.67c.631-7.122,2.887-11.483,5.317-14.15A12.336,12.336,0,0,1,821.2,2871.2Z" transform="translate(-795.4 -2865.336)"/><path class="a" d="M846.94,2873.04c.126-.021.252-.043.378-.061C847.318,2872.979,847.183,2872.992,846.94,2873.04Z" transform="translate(-816.239 -2869.521)"/><path class="a" d="M846.94,2873.04c.126-.021.252-.043.378-.061C847.318,2872.979,847.183,2872.992,846.94,2873.04Z" transform="translate(-816.239 -2869.521)"/><g transform="translate(72.305 0.537)"><path class="a" d="M985.5,2865.751q1.657.135,3.41.348C986.975,2865.83,985.5,2865.751,985.5,2865.751Z" transform="translate(-971.12 -2865.751)"/><path class="a" d="M966.889,2865.751c-23,11.7-7.533,48.877-7.533,48.877-.25-.658-.482-1.321-.706-1.986l.034.009a72.308,72.308,0,0,1-2.449-25.67,14.263,14.263,0,0,0,2.955,4.493,15.132,15.132,0,0,0,10.322,4.413c.134,0,.268.005.4.005a16.528,16.528,0,0,0,5.886-1.112,17.26,17.26,0,0,0,2.872-1.426,14.189,14.189,0,0,0,4.4-4.559,13.957,13.957,0,0,0,.791-1.44q.158-.335.3-.677a14.986,14.986,0,0,0,1.14-5.675,14.033,14.033,0,0,0-.124-1.862,14.8,14.8,0,0,0-2.666-6.622,15.133,15.133,0,0,0-4.391-4.093c-1.908-1.283-5.276-1.971-7.829-2.327Q968.546,2865.887,966.889,2865.751Zm8.647,3.829a12.491,12.491,0,0,1,1.295.636,12.751,12.751,0,0,1,6.052,7.909,12.784,12.784,0,0,1-1.492,9.922,12.983,12.983,0,0,1-3.482,3.724c-.306.219-.641.433-.994.637a12.86,12.86,0,0,1-2.927,1.237,11.344,11.344,0,0,1-7.522-.635l-.527-.243c-.114-.052-.227-.107-.333-.159l-.233-.12a13.711,13.711,0,0,1-3.609-2.781,12.219,12.219,0,0,1-.935-1.168,12.772,12.772,0,0,1,6.922-19.678c.343-.077.695-.141,1.044-.189a12.682,12.682,0,0,1,3.272-.027A12.911,12.911,0,0,1,975.536,2869.58Z" transform="translate(-952.503 -2865.751)"/><path class="a" d="M952.586,2869.428q-.187.591-.361,1.181c-.117.4-.232.8-.339,1.2-.125.465-.246.928-.357,1.385-.243,1.152-.539,2.3-.708,3.464l-.289,1.746-.228,1.756a64.183,64.183,0,0,0-.4,7.068,68.4,68.4,0,0,0,.413,7.066,63.413,63.413,0,0,0,1.225,6.961,58.055,58.055,0,0,0,2.012,6.76c.547,1.45,1.133,2.888,1.808,4.28,0,0,.005.015.008.016.345.711.942,1.654,1.344,2.336,0,0-15.434-36.795,6.747-48.819C954.829,2866.22,952.586,2869.428,952.586,2869.428Z" transform="translate(-949.903 -2865.795)"/></g></svg>
