<svg xmlns="http://www.w3.org/2000/svg" width="44" height="44" viewBox="0 0 44 44"><defs><style>.a{fill:#ffbb69;}.b{fill:#fff;}</style></defs><circle class="a" cx="22" cy="22" r="22"/><g transform="translate(12.007 12.065)"><path class="b" d="M-893.946,109.791c-.05-.034-.106-.017-.162-.018-.466,0-.933,0-1.4,0a.177.177,0,0,1-.205-.151c-.044-.162-.1-.32-.149-.479s-.044-.175.124-.175q1.073,0,2.146,0c.044,0,.087,0,.137,0,.131.011.174-.037.131-.17q-.149-.527-.28-1.058c-.025-.114-.1-.139-.193-.155-.709-.113-1.418-.233-2.133-.335a1.336,1.336,0,0,1-.852-.479c-.243-.288-.491-.566-.734-.852-.068-.081-.112-.093-.187,0-.379.5-.771,1-1.169,1.5-.075.094-.025.125.043.176.666.506,1.331,1.011,2,1.521a1.269,1.269,0,0,1,.56,1.147c-.012.177-.025.354-.031.531-.044.582-.081,1.162-.118,1.743-.044.637-.075,1.274-.124,1.91a1.057,1.057,0,0,1-1.281.989,1.036,1.036,0,0,1-.765-.888,4.461,4.461,0,0,1-.006-.576c.006-.664.006-1.328.012-1.992.006-.365.012-.729.025-1.094a.224.224,0,0,0-.131-.232q-1.53-.945-3.06-1.9a1.663,1.663,0,0,1-.79-1.019,1.614,1.614,0,0,1,.354-1.411c.61-.8,1.244-1.589,1.866-2.383.106-.144.224-.285.336-.432a1.832,1.832,0,0,1,2.712-.246,2.367,2.367,0,0,1,.435.506c.429.651.865,1.3,1.294,1.951a.373.373,0,0,0,.267.176c.659.127,1.319.26,1.978.391a1.368,1.368,0,0,1,.162.039.688.688,0,0,1,.386,1.071.256.256,0,0,0-.056.238q.4,1.467.784,2.937c.037.153.124.142.236.128a3.833,3.833,0,0,1,2.177.348,3.952,3.952,0,0,1,2.345,3.267,3.911,3.911,0,0,1-1.194,3.343,3.949,3.949,0,0,1-2.519,1.155,4.086,4.086,0,0,1-4.4-3.672,4.083,4.083,0,0,1,2.476-4.145c.112-.046.149-.095.112-.213-.068-.2-.112-.409-.168-.615-.044-.154-.044-.156-.162-.039q-1.325,1.317-2.637,2.635a.407.407,0,0,1-.056.053c-.031.028-.062.091-.106.073s-.031-.089-.025-.135l.056-.924a.309.309,0,0,1,.118-.187l1.717-1.722C-894.008,109.881-893.958,109.853-893.946,109.791Zm2.65,1.865c-.081,0-.155,0-.23,0-.18.005-.193.018-.143.2.168.631.342,1.261.5,1.895a.378.378,0,0,0,.224.274.805.805,0,0,1,.336,1.141.824.824,0,0,1-1.144.278.8.8,0,0,1-.23-1.167.29.29,0,0,0,.05-.281c-.174-.635-.342-1.272-.51-1.909-.062-.207-.062-.208-.255-.118l-.056.026a3.1,3.1,0,0,0-1.623,3.231,3.089,3.089,0,0,0,3.44,2.6,3.093,3.093,0,0,0,2.712-2.794A3.089,3.089,0,0,0-891.3,111.657Z" transform="translate(907.693 -98.932)"/><path class="b" d="M-1066.412,357.968a4.02,4.02,0,0,1,2.438.813c.124.095.193.086.3-.023.268-.291.566-.566.846-.854a.15.15,0,0,1,.23-.028c.137.1.286.194.436.285.106.061.106.112.019.194-.336.327-.659.661-.989.984-.093.09-.106.151-.025.253a3.99,3.99,0,0,1,.827,2.555,4.094,4.094,0,0,1-3.446,3.93,4.072,4.072,0,0,1-4.553-2.911,4.086,4.086,0,0,1,3.235-5.139A3.631,3.631,0,0,1-1066.412,357.968Zm.006.983a3.629,3.629,0,0,0-.454.03,3.114,3.114,0,0,0-2.644,3.362,3.1,3.1,0,0,0,3.465,2.779,3.073,3.073,0,0,0,2.675-2.518c.031-.12-.006-.152-.118-.152-.6,0-1.194,0-1.785,0a.2.2,0,0,0-.193.113,1.03,1.03,0,0,1-.97.563,1.027,1.027,0,0,1-.964-.627,1.008,1.008,0,0,1,.156-1.149,1.017,1.017,0,0,1,1.12-.348.22.22,0,0,0,.255-.064c.4-.412.821-.826,1.238-1.235.093-.095.087-.145-.019-.215A3.088,3.088,0,0,0-1066.406,358.951Zm2.04,2.7c.3,0,.591,0,.889,0,.112,0,.143-.042.124-.149a3.263,3.263,0,0,0-.51-1.224c-.062-.084-.106-.11-.18-.025-.423.425-.852.848-1.269,1.269-.025.028-.081.054-.062.1s.081.031.124.033Z" transform="translate(1070.493 -346.231)"/><path class="b" d="M-742.706-19.165a2.231,2.231,0,0,1-2.239-2.225,2.249,2.249,0,0,1,2.233-2.228,2.248,2.248,0,0,1,2.227,2.226A2.226,2.226,0,0,1-742.706-19.165Z" transform="translate(754.847 23.617)"/></g></svg>
